<svg width="52" height="52" viewBox="0 0 52 52" fill="none" xmlns="http://www.w3.org/2000/svg">
<path d="M10.5957 46.0951L15.0015 45.2135C15.08 45.1977 15.1614 45.2055 15.2355 45.2359C15.3096 45.2662 15.373 45.3178 15.4179 45.3841L17.9245 49.1115L19.2976 43.3062L11.4305 44.0638L10.5957 46.0951Z" fill="#FFDD00"/>
<path d="M26.2391 45.3841C26.284 45.3178 26.3475 45.2662 26.4216 45.2359C26.4956 45.2055 26.577 45.1977 26.6555 45.2135L31.0613 46.0951L30.2245 44.0638L21.3418 43.3062L23.7326 49.1115L26.2391 45.3841Z" fill="#FFDD00"/>
<path d="M26.18 25.1144C26.1236 25.1427 26.0613 25.1574 25.9982 25.1574C25.9351 25.1574 25.8728 25.1427 25.8164 25.1144L16.0664 19.7296V26.7638C16.1842 27.3203 16.4727 32.2096 26.0012 32.2096C35.473 32.2096 36.8278 27.3204 36.9517 26.7618V19.7275L26.18 25.1144Z" fill="#40BDFF"/>
<path d="M35.9369 20.2354V26.7618C35.815 27.3102 34.5048 32.0328 25.4922 32.2035H26.002C35.4737 32.2035 36.8286 27.3143 36.9525 26.7557V19.7275L35.9369 20.2354Z" fill="#2197F7"/>
<path d="M20.3549 42.4043L24.2834 42.7395V37.052L20.3549 37.3872C20.3319 37.3892 20.3088 37.3892 20.2859 37.3872L16.3574 37.052V42.7395L20.2859 42.4043H20.3549Z" fill="#FFDD00"/>
<path d="M36.9521 35.9695L25.0957 36.9831V42.8107L36.9521 43.8243V35.9695Z" fill="#EFFAFE"/>
<path d="M46.6198 33.02C45.9552 33.0206 45.318 33.2848 44.848 33.7548C44.3781 34.2247 44.1138 34.862 44.1133 35.5266V38.4394C44.1133 39.1042 44.3774 39.7417 44.8474 40.2118C45.3175 40.6819 45.9551 40.946 46.6198 40.946C47.2846 40.946 47.9222 40.6819 48.3923 40.2118C48.8623 39.7417 49.1264 39.1042 49.1264 38.4394V35.5266C49.1259 34.862 48.8616 34.2247 48.3917 33.7548C47.9217 33.2848 47.2845 33.0206 46.6198 33.02Z" fill="#EB5639"/>
<path d="M46.6191 33.02C46.3425 33.0206 46.0679 33.0673 45.8066 33.1581C46.3003 33.3276 46.7288 33.6469 47.0325 34.0714C47.3362 34.4959 47.4998 35.0046 47.5007 35.5266V38.4394C47.4998 38.9614 47.3362 39.47 47.0325 39.8946C46.7288 40.3191 46.3003 40.6384 45.8066 40.8078C46.1838 40.9385 46.5868 40.977 46.9819 40.9201C47.377 40.8631 47.7527 40.7124 48.0777 40.4805C48.4026 40.2487 48.6673 39.9424 48.8496 39.5873C49.032 39.2322 49.1266 38.8386 49.1257 38.4394V35.5266C49.1252 34.862 48.8609 34.2247 48.391 33.7548C47.921 33.2848 47.2838 33.0206 46.6191 33.02Z" fill="#D84936"/>
<path d="M49.0294 13.3901L27.6241 2.48633L5.8125 13.3901L27.6241 24.2959L49.0294 13.3901Z" fill="#2197F7"/>
<path d="M27.6255 2.48633L26.0879 3.25414L45.984 13.3901L26.0879 23.528L27.6255 24.2959L49.0309 13.3901L27.6255 2.48633Z" fill="#228ED6"/>
<path d="M15.5459 36.9831L4.70312 35.9695V43.8243L15.5459 42.8087V36.9831Z" fill="#EFFAFE"/>
<path d="M23.2676 37.1396V42.6544L24.2832 42.7397V37.0522L23.2676 37.1396Z" fill="#EFC803"/>
<path d="M35.9375 36.0568V43.737L36.9531 43.8243V35.9695L35.9375 36.0568Z" fill="#E4EBED"/>
<path d="M4.70312 35.9695V36.065L14.5303 36.9831V42.8087L4.70312 43.7289V43.8243L15.5459 42.8087V36.9831L4.70312 35.9695Z" fill="#E4EBED"/>
<path d="M3.0459 13.845L14.1325 19.3842V26.7881C14.1302 26.8159 14.1302 26.8437 14.1325 26.8714C14.1751 27.1274 15.2964 33.1216 25.9929 33.1216C36.6895 33.1216 37.8107 27.1274 37.8534 26.8714C37.8557 26.8437 37.8557 26.8159 37.8534 26.7881V19.3842L45.2959 15.6691V32.1486C44.4868 32.2705 43.7481 32.6783 43.2137 33.298C42.6793 33.9177 42.3846 34.7083 42.3831 35.5266V38.4394C42.3844 39.2019 42.6403 39.9422 43.1102 40.5428C43.5801 41.1433 44.2371 41.5698 44.977 41.7544L42.4522 46.0464C42.3837 46.1625 42.3642 46.301 42.398 46.4315C42.4317 46.562 42.5158 46.6737 42.6319 46.7421C42.748 46.8105 42.8865 46.83 43.017 46.7963C43.1475 46.7626 43.2592 46.6785 43.3276 46.5624L45.2959 43.2169V46.3125C45.2959 46.4472 45.3494 46.5764 45.4446 46.6716C45.5399 46.7668 45.669 46.8203 45.8037 46.8203C45.9384 46.8203 46.0676 46.7668 46.1628 46.6716C46.258 46.5764 46.3115 46.4472 46.3115 46.3125V43.225L48.2778 46.5685C48.3462 46.6845 48.4579 46.7687 48.5884 46.8024C48.7189 46.8361 48.8574 46.8166 48.9735 46.7482C49.0896 46.6798 49.1737 46.5681 49.2075 46.4376C49.2412 46.3071 49.2217 46.1686 49.1532 46.0525L46.6284 41.7605C47.3683 41.5758 48.0253 41.1494 48.4952 40.5489C48.9651 39.9483 49.221 39.208 49.2223 38.4455V35.5266C49.2208 34.7086 48.9264 33.9182 48.3925 33.2985C47.8585 32.6789 47.1203 32.2709 46.3115 32.1486V15.1613L48.9522 13.845C49.0364 13.8028 49.1072 13.738 49.1567 13.6578C49.2062 13.5776 49.2324 13.4853 49.2324 13.391C49.2324 13.2968 49.2062 13.2044 49.1567 13.1243C49.1072 13.0441 49.0364 12.9793 48.9522 12.9371L26.2265 1.57627C26.1559 1.54089 26.078 1.52246 25.999 1.52246C25.92 1.52246 25.8421 1.54089 25.7715 1.57627L3.0459 12.9371C2.96167 12.9793 2.89084 13.0441 2.84134 13.1243C2.79184 13.2044 2.76562 13.2968 2.76562 13.391C2.76562 13.4853 2.79184 13.5776 2.84134 13.6578C2.89084 13.738 2.96167 13.8028 3.0459 13.845ZM36.8439 26.7394C36.7423 27.1964 35.422 32.106 25.9929 32.106C16.5172 32.106 15.2476 27.2452 15.142 26.7394V19.8921L25.7675 25.2038C25.8381 25.2392 25.916 25.2576 25.995 25.2576C26.074 25.2576 26.1518 25.2392 26.2225 25.2038L36.8479 19.8921L36.8439 26.7394ZM48.2026 35.5266V38.4394C48.2021 39.0771 47.9485 39.6885 47.4976 40.1394C47.0467 40.5903 46.4353 40.8439 45.7976 40.8444C45.1599 40.8439 44.5485 40.5903 44.0976 40.1394C43.6467 39.6885 43.3932 39.0771 43.3926 38.4394V35.5266C43.3926 34.8887 43.646 34.277 44.097 33.826C44.5481 33.375 45.1598 33.1216 45.7976 33.1216C46.4355 33.1216 47.0472 33.375 47.4982 33.826C47.9492 34.277 48.2026 34.8887 48.2026 35.5266ZM25.999 2.59799L47.5831 13.39L25.999 24.1821L4.41497 13.39L25.999 2.59799Z" fill="#263238"/>
<path d="M3.32221 44.7708L9.34283 44.2569L8.43893 46.4486C8.40413 46.5336 8.393 46.6263 8.40672 46.7171C8.42044 46.8078 8.45849 46.8932 8.51683 46.964C8.57517 47.0348 8.65162 47.0885 8.73805 47.1194C8.82448 47.1503 8.91766 47.1571 9.00768 47.1393L13.8258 46.1744L16.568 50.2511C16.6178 50.3301 16.6884 50.3938 16.772 50.4353C16.8556 50.4768 16.9491 50.4944 17.0421 50.4862C17.1351 50.478 17.224 50.4443 17.2991 50.3889C17.3742 50.3335 17.4326 50.2584 17.4678 50.1719L20.2831 43.3327H20.3238H20.3644L23.1756 50.1719C23.2106 50.2571 23.2681 50.3311 23.3419 50.3861C23.4157 50.4411 23.5031 50.475 23.5947 50.4842C23.6863 50.4933 23.7786 50.4775 23.8619 50.4382C23.9452 50.3989 24.0162 50.3378 24.0674 50.2613L26.8116 46.1765L31.6297 47.1413C31.7197 47.1592 31.8129 47.1523 31.8993 47.1214C31.9858 47.0906 32.0622 47.0369 32.1206 46.966C32.1789 46.8952 32.2169 46.8099 32.2307 46.7191C32.2444 46.6284 32.2333 46.5356 32.1985 46.4507L31.2946 44.259L37.3172 44.7729H37.3599C37.4945 44.7729 37.6237 44.7194 37.7189 44.6241C37.8142 44.5289 37.8677 44.3997 37.8677 44.2651V35.5307C37.8676 35.4604 37.853 35.3909 37.8248 35.3266C37.7965 35.2623 37.7552 35.2045 37.7034 35.157C37.6517 35.1094 37.5907 35.0732 37.5242 35.0504C37.4577 35.0277 37.3872 35.019 37.3172 35.0249L20.3116 36.4732L3.31611 35.0208C3.2461 35.0149 3.17562 35.0236 3.10914 35.0464C3.04266 35.0691 2.98162 35.1054 2.92988 35.1529C2.87814 35.2005 2.83683 35.2582 2.80856 35.3225C2.78029 35.3869 2.76568 35.4564 2.76564 35.5266V44.261C2.76503 44.3322 2.77938 44.4027 2.80777 44.4679C2.83616 44.5332 2.87794 44.5917 2.93042 44.6398C2.9829 44.6879 3.04489 44.7244 3.11239 44.747C3.17988 44.7695 3.25137 44.7777 3.32221 44.7708ZM16.8828 48.8963L14.4839 45.3274C14.428 45.2439 14.3485 45.1788 14.2556 45.1405C14.1627 45.1022 14.0604 45.0923 13.9619 45.1121L9.74908 45.9591L10.4905 44.1615L19.1456 43.4221L16.8828 48.8963ZM26.6735 45.1121C26.5749 45.092 26.4726 45.1018 26.3796 45.1401C26.2866 45.1785 26.2072 45.2437 26.1514 45.3274L23.7505 48.8963L21.4958 43.4119L30.151 44.1513L30.8924 45.949L26.6735 45.1121ZM25.1866 37.0765L36.8419 36.0812V43.7126L30.545 43.1743L25.1866 42.7172V37.0765ZM16.4522 37.1719L20.271 37.499C20.3 37.5016 20.3292 37.5016 20.3583 37.499L24.171 37.1719V42.638L20.3522 42.311H20.2649L16.4522 42.6299V37.1719ZM3.78127 36.0893L15.4366 37.0765V42.7172L3.78127 43.7126V36.0893Z" fill="#263238"/>
<path d="M6.70312 18.7383H5.89062V17.9258C5.89062 17.8719 5.86922 17.8202 5.83113 17.7822C5.79304 17.7441 5.74137 17.7227 5.6875 17.7227C5.63363 17.7227 5.58196 17.7441 5.54387 17.7822C5.50578 17.8202 5.48438 17.8719 5.48438 17.9258V18.7383H4.67188C4.618 18.7383 4.56634 18.7597 4.52824 18.7978C4.49015 18.8359 4.46875 18.8875 4.46875 18.9414C4.46875 18.9953 4.49015 19.0469 4.52824 19.085C4.56634 19.1231 4.618 19.1445 4.67188 19.1445H5.48438V19.957C5.48438 20.0109 5.50578 20.0626 5.54387 20.1007C5.58196 20.1388 5.63363 20.1602 5.6875 20.1602C5.74137 20.1602 5.79304 20.1388 5.83113 20.1007C5.86922 20.0626 5.89062 20.0109 5.89062 19.957V19.1445H6.70312C6.757 19.1445 6.80866 19.1231 6.84676 19.085C6.88485 19.0469 6.90625 18.9953 6.90625 18.9414C6.90625 18.8875 6.88485 18.8359 6.84676 18.7978C6.80866 18.7597 6.757 18.7383 6.70312 18.7383Z" fill="#FFDD00"/>
<path d="M43.5215 25.2078H42.709V24.3953C42.709 24.3414 42.6876 24.2897 42.6495 24.2516C42.6114 24.2135 42.5597 24.1921 42.5059 24.1921C42.452 24.1921 42.4003 24.2135 42.3622 24.2516C42.3241 24.2897 42.3027 24.3414 42.3027 24.3953V25.2078H41.4902C41.4364 25.2078 41.3847 25.2292 41.3466 25.2673C41.3085 25.3054 41.2871 25.357 41.2871 25.4109C41.2871 25.4648 41.3085 25.5164 41.3466 25.5545C41.3847 25.5926 41.4364 25.614 41.4902 25.614H42.3027V26.4265C42.3027 26.4804 42.3241 26.5321 42.3622 26.5701C42.4003 26.6082 42.452 26.6296 42.5059 26.6296C42.5597 26.6296 42.6114 26.6082 42.6495 26.5701C42.6876 26.5321 42.709 26.4804 42.709 26.4265V25.614H43.5215C43.5754 25.614 43.627 25.5926 43.6651 25.5545C43.7032 25.5164 43.7246 25.4648 43.7246 25.4109C43.7246 25.357 43.7032 25.3054 43.6651 25.2673C43.627 25.2292 43.5754 25.2078 43.5215 25.2078Z" fill="#FFDD00"/>
<path d="M40.4219 3.27832H39.6094V2.46582C39.6094 2.41195 39.588 2.36028 39.5499 2.32219C39.5118 2.2841 39.4601 2.2627 39.4062 2.2627C39.3524 2.2627 39.3007 2.2841 39.2626 2.32219C39.2245 2.36028 39.2031 2.41195 39.2031 2.46582V3.27832H38.3906C38.3368 3.27832 38.2851 3.29972 38.247 3.33781C38.2089 3.37591 38.1875 3.42757 38.1875 3.48145C38.1875 3.53532 38.2089 3.58698 38.247 3.62508C38.2851 3.66317 38.3368 3.68457 38.3906 3.68457H39.2031V4.49707C39.2031 4.55094 39.2245 4.60261 39.2626 4.6407C39.3007 4.67879 39.3524 4.7002 39.4062 4.7002C39.4601 4.7002 39.5118 4.67879 39.5499 4.6407C39.588 4.60261 39.6094 4.55094 39.6094 4.49707V3.68457H40.4219C40.4757 3.68457 40.5274 3.66317 40.5655 3.62508C40.6036 3.58698 40.625 3.53532 40.625 3.48145C40.625 3.42757 40.6036 3.37591 40.5655 3.33781C40.5274 3.29972 40.4757 3.27832 40.4219 3.27832Z" fill="#40BDFF"/>
<path d="M8.73438 4.82007C8.49333 4.82007 8.2577 4.74859 8.05727 4.61467C7.85685 4.48075 7.70064 4.29041 7.6084 4.06771C7.51615 3.84502 7.49202 3.59997 7.53904 3.36355C7.58607 3.12714 7.70214 2.90998 7.87259 2.73953C8.04303 2.56909 8.26019 2.45301 8.49661 2.40599C8.73302 2.35896 8.97807 2.3831 9.20077 2.47534C9.42347 2.56759 9.61381 2.7238 9.74773 2.92422C9.88165 3.12464 9.95313 3.36027 9.95313 3.60132C9.95313 3.92455 9.82472 4.23455 9.59616 4.46311C9.3676 4.69167 9.05761 4.82007 8.73438 4.82007ZM8.73438 2.78882C8.57368 2.78882 8.41659 2.83647 8.28297 2.92575C8.14936 3.01503 8.04522 3.14192 7.98372 3.29039C7.92223 3.43885 7.90614 3.60222 7.93749 3.75983C7.96884 3.91744 8.04622 4.06221 8.15985 4.17584C8.27348 4.28947 8.41826 4.36686 8.57586 4.39821C8.73347 4.42956 8.89684 4.41347 9.04531 4.35197C9.19377 4.29047 9.32067 4.18633 9.40994 4.05272C9.49922 3.9191 9.54688 3.76202 9.54688 3.60132C9.54688 3.38583 9.46127 3.17917 9.3089 3.02679C9.15653 2.87442 8.94986 2.78882 8.73438 2.78882Z" fill="#40BDFF"/>
<path d="M5.6875 33.5461C5.44645 33.5461 5.21082 33.4747 5.0104 33.3407C4.80998 33.2068 4.65377 33.0165 4.56152 32.7938C4.46928 32.5711 4.44514 32.326 4.49217 32.0896C4.53919 31.8532 4.65527 31.6361 4.82571 31.4656C4.99616 31.2952 5.21332 31.1791 5.44973 31.1321C5.68615 31.085 5.9312 31.1092 6.1539 31.2014C6.37659 31.2937 6.56694 31.4499 6.70085 31.6503C6.83477 31.8507 6.90625 32.0863 6.90625 32.3274C6.90625 32.6506 6.77785 32.9606 6.54929 33.1892C6.32073 33.4177 6.01073 33.5461 5.6875 33.5461ZM5.6875 31.5149C5.5268 31.5149 5.36971 31.5625 5.2361 31.6518C5.10248 31.7411 4.99834 31.868 4.93685 32.0165C4.87535 32.1649 4.85926 32.3283 4.89061 32.4859C4.92196 32.6435 4.99935 32.7883 5.11298 32.9019C5.22661 33.0155 5.37138 33.0929 5.52899 33.1243C5.6866 33.1556 5.84997 33.1395 5.99843 33.078C6.1469 33.0165 6.27379 32.9124 6.36307 32.7788C6.45235 32.6452 6.5 32.4881 6.5 32.3274C6.5 32.1119 6.4144 31.9052 6.26202 31.7529C6.10965 31.6005 5.90299 31.5149 5.6875 31.5149Z" fill="#FFDD00"/>
<path d="M45.9062 8.125C45.6652 8.125 45.4296 8.05352 45.2291 7.9196C45.0287 7.78569 44.8725 7.59534 44.7803 7.37265C44.688 7.14995 44.6639 6.9049 44.7109 6.66848C44.7579 6.43207 44.874 6.21491 45.0445 6.04446C45.2149 5.87402 45.4321 5.75794 45.6685 5.71092C45.9049 5.66389 46.1499 5.68803 46.3726 5.78027C46.5953 5.87252 46.7857 6.02873 46.9196 6.22915C47.0535 6.42957 47.125 6.6652 47.125 6.90625C47.125 7.22948 46.9966 7.53948 46.768 7.76804C46.5395 7.9966 46.2295 8.125 45.9062 8.125ZM45.9062 6.09375C45.7456 6.09375 45.5885 6.1414 45.4548 6.23068C45.3212 6.31996 45.2171 6.44686 45.1556 6.59532C45.0941 6.74379 45.078 6.90715 45.1094 7.06476C45.1407 7.22237 45.2181 7.36714 45.3317 7.48077C45.4454 7.5944 45.5901 7.67179 45.7477 7.70314C45.9053 7.73449 46.0687 7.7184 46.2172 7.6569C46.3656 7.59541 46.4925 7.49127 46.5818 7.35765C46.6711 7.22404 46.7187 7.06695 46.7187 6.90625C46.7187 6.69076 46.6331 6.4841 46.4808 6.33173C46.3284 6.17935 46.1217 6.09375 45.9062 6.09375Z" fill="#FFDD00"/>
<path d="M51.4922 21.574H50.9661L51.3378 21.2023C51.3711 21.1634 51.3885 21.1134 51.3865 21.0623C51.3845 21.0112 51.3633 20.9627 51.3272 20.9265C51.291 20.8903 51.2425 20.8691 51.1914 20.8672C51.1402 20.8652 51.0903 20.8826 51.0514 20.9159L50.6797 21.2876V20.7615C50.6797 20.7076 50.6583 20.6559 50.6202 20.6178C50.5821 20.5798 50.5304 20.5583 50.4766 20.5583C50.4227 20.5583 50.371 20.5798 50.3329 20.6178C50.2948 20.6559 50.2734 20.7076 50.2734 20.7615V21.2876L49.9017 20.9219C49.8629 20.8887 49.8129 20.8713 49.7618 20.8733C49.7106 20.8752 49.6621 20.8964 49.626 20.9326C49.5898 20.9688 49.5686 21.0173 49.5666 21.0684C49.5646 21.1195 49.582 21.1695 49.6153 21.2084L49.987 21.5801H49.4609C49.4071 21.5801 49.3554 21.6015 49.3173 21.6396C49.2792 21.6777 49.2578 21.7293 49.2578 21.7832C49.2578 21.8371 49.2792 21.8887 49.3173 21.9268C49.3554 21.9649 49.4071 21.9863 49.4609 21.9863H49.987L49.6153 22.3438C49.582 22.3827 49.5646 22.4327 49.5666 22.4838C49.5686 22.5349 49.5898 22.5834 49.626 22.6196C49.6621 22.6557 49.7106 22.6769 49.7618 22.6789C49.8129 22.6809 49.8629 22.6635 49.9017 22.6302L50.2734 22.2585V22.7846C50.2734 22.8385 50.2948 22.8901 50.3329 22.9282C50.371 22.9663 50.4227 22.9877 50.4766 22.9877C50.5304 22.9877 50.5821 22.9663 50.6202 22.9282C50.6583 22.8901 50.6797 22.8385 50.6797 22.7846V22.2585L51.0514 22.6302C51.0903 22.6635 51.1402 22.6809 51.1914 22.6789C51.2425 22.6769 51.291 22.6557 51.3272 22.6196C51.3633 22.5834 51.3845 22.5349 51.3865 22.4838C51.3885 22.4327 51.3711 22.3827 51.3378 22.3438L50.9661 21.9721H51.4922C51.5461 21.9721 51.5977 21.9507 51.6358 21.9126C51.6739 21.8745 51.6953 21.8228 51.6953 21.769C51.6953 21.7151 51.6739 21.6634 51.6358 21.6253C51.5977 21.5872 51.5461 21.5658 51.4922 21.5658V21.574Z" fill="#40BDFF"/>
<path d="M39.2031 47.2266H38.677L39.0488 46.8548C39.082 46.816 39.0994 46.766 39.0974 46.7149C39.0955 46.6638 39.0743 46.6153 39.0381 46.5791C39.0019 46.5429 38.9534 46.5217 38.9023 46.5197C38.8512 46.5178 38.8012 46.5352 38.7623 46.5684L38.3906 46.9402V46.4141C38.3906 46.3602 38.3692 46.3085 38.3311 46.2704C38.293 46.2323 38.2414 46.2109 38.1875 46.2109C38.1336 46.2109 38.082 46.2323 38.0439 46.2704C38.0058 46.3085 37.9844 46.3602 37.9844 46.4141V46.9402L37.6127 46.5684C37.5738 46.5352 37.5238 46.5178 37.4727 46.5197C37.4216 46.5217 37.3731 46.5429 37.3369 46.5791C37.3007 46.6153 37.2795 46.6638 37.2776 46.7149C37.2756 46.766 37.293 46.816 37.3262 46.8548L37.698 47.2266H37.1719C37.118 47.2266 37.0663 47.248 37.0282 47.2861C36.9902 47.3241 36.9688 47.3758 36.9688 47.4297C36.9688 47.4836 36.9902 47.5352 37.0282 47.5733C37.0663 47.6114 37.118 47.6328 37.1719 47.6328H37.698L37.3262 48.0045C37.293 48.0434 37.2756 48.0934 37.2776 48.1445C37.2795 48.1956 37.3007 48.2441 37.3369 48.2803C37.3731 48.3165 37.4216 48.3377 37.4727 48.3396C37.5238 48.3416 37.5738 48.3242 37.6127 48.2909L37.9844 47.9192V48.4453C37.9844 48.4992 38.0058 48.5509 38.0439 48.5889C38.082 48.627 38.1336 48.6484 38.1875 48.6484C38.2414 48.6484 38.293 48.627 38.3311 48.5889C38.3692 48.5509 38.3906 48.4992 38.3906 48.4453V47.9192L38.7623 48.2909C38.8012 48.3242 38.8512 48.3416 38.9023 48.3396C38.9534 48.3377 39.0019 48.3165 39.0381 48.2803C39.0743 48.2441 39.0955 48.1956 39.0974 48.1445C39.0994 48.0934 39.082 48.0434 39.0488 48.0045L38.677 47.6328H39.2031C39.257 47.6328 39.3087 47.6114 39.3468 47.5733C39.3848 47.5352 39.4062 47.4836 39.4062 47.4297C39.4062 47.3758 39.3848 47.3241 39.3468 47.2861C39.3087 47.248 39.257 47.2266 39.2031 47.2266Z" fill="#40BDFF"/>
<path d="M4.5 47.2266H3.97594L4.34766 46.8548C4.37881 46.8159 4.39455 46.7669 4.39188 46.7171C4.38922 46.6673 4.36833 46.6202 4.33319 46.5848C4.29806 46.5494 4.25113 46.5282 4.20136 46.5252C4.15159 46.5222 4.10244 46.5376 4.06328 46.5684L3.69156 46.9402V46.4141C3.69156 46.3602 3.67016 46.3085 3.63207 46.2704C3.59398 46.2323 3.54231 46.2109 3.48844 46.2109C3.43457 46.2109 3.3829 46.2323 3.34481 46.2704C3.30671 46.3085 3.28531 46.3602 3.28531 46.4141V46.9402L2.91359 46.5684C2.87474 46.5352 2.82475 46.5178 2.77363 46.5197C2.72251 46.5217 2.67401 46.5429 2.63784 46.5791C2.60166 46.6153 2.58047 46.6638 2.5785 46.7149C2.57652 46.766 2.59391 46.816 2.62719 46.8548L2.99891 47.2266H2.46875C2.41488 47.2266 2.36321 47.248 2.32512 47.2861C2.28703 47.3241 2.26562 47.3758 2.26562 47.4297C2.26562 47.4836 2.28703 47.5352 2.32512 47.5733C2.36321 47.6114 2.41488 47.6328 2.46875 47.6328H2.99484L2.62313 48.0045C2.58985 48.0434 2.57246 48.0934 2.57443 48.1445C2.57641 48.1956 2.5976 48.2441 2.63378 48.2803C2.66995 48.3165 2.71845 48.3377 2.76957 48.3396C2.82069 48.3416 2.87067 48.3242 2.90953 48.2909L3.28125 47.9192V48.4453C3.28125 48.4992 3.30265 48.5509 3.34074 48.5889C3.37884 48.627 3.4305 48.6484 3.48438 48.6484C3.53825 48.6484 3.58991 48.627 3.62801 48.5889C3.6661 48.5509 3.6875 48.4992 3.6875 48.4453V47.9192L4.06328 48.2909C4.10214 48.3242 4.15212 48.3416 4.20325 48.3396C4.25437 48.3377 4.30286 48.3165 4.33904 48.2803C4.37521 48.2441 4.3964 48.1956 4.39838 48.1445C4.40035 48.0934 4.38296 48.0434 4.34969 48.0045L3.97797 47.6328H4.50406C4.55793 47.6328 4.6096 47.6114 4.64769 47.5733C4.68579 47.5352 4.70719 47.4836 4.70719 47.4297C4.70719 47.3758 4.68579 47.3241 4.64769 47.2861C4.6096 47.248 4.55793 47.2266 4.50406 47.2266H4.5Z" fill="#40BDFF"/>
</svg>
