<svg width="50" height="42" viewBox="0 0 50 42" fill="none" xmlns="http://www.w3.org/2000/svg">
<path d="M3.125 6.83749C5.89062 5.68124 9.85625 4.43437 13.7125 4.04687C17.8687 3.62812 21.3937 4.24374 23.4375 6.39687V36.8531C20.5156 35.1969 16.8125 34.9687 13.3969 35.3125C9.70938 35.6875 5.99062 36.7531 3.125 37.8469V6.83749ZM26.5625 6.39687C28.6063 4.24374 32.1313 3.62812 36.2875 4.04687C40.1438 4.43437 44.1094 5.68124 46.875 6.83749V37.8469C44.0062 36.7531 40.2906 35.6844 36.6031 35.3156C33.1844 34.9687 29.4844 35.1937 26.5625 36.8531V6.39687ZM25 3.57187C21.9219 0.924994 17.4594 0.531244 13.3969 0.937494C8.66563 1.41562 3.89062 3.03749 0.915625 4.39062C0.642653 4.51477 0.411173 4.71485 0.248816 4.96697C0.0864584 5.2191 8.30357e-05 5.51262 0 5.81249L0 40.1875C7.23812e-05 40.4489 0.0657411 40.7062 0.190991 40.9356C0.316241 41.1651 0.497068 41.3595 0.716909 41.501C0.93675 41.6425 1.18858 41.7265 1.44932 41.7455C1.71007 41.7644 1.9714 41.7176 2.20938 41.6094C4.96563 40.3594 9.40625 38.8562 13.7094 38.4219C18.1125 37.9781 21.8031 38.6937 23.7812 41.1625C23.9277 41.345 24.1132 41.4923 24.3241 41.5935C24.5351 41.6947 24.766 41.7472 25 41.7472C25.234 41.7472 25.4649 41.6947 25.6759 41.5935C25.8868 41.4923 26.0723 41.345 26.2188 41.1625C28.1969 38.6937 31.8875 37.9781 36.2875 38.4219C40.5938 38.8562 45.0375 40.3594 47.7906 41.6094C48.0286 41.7176 48.2899 41.7644 48.5507 41.7455C48.8114 41.7265 49.0632 41.6425 49.2831 41.501C49.5029 41.3595 49.6838 41.1651 49.809 40.9356C49.9343 40.7062 49.9999 40.4489 50 40.1875V5.81249C49.9999 5.51262 49.9135 5.2191 49.7512 4.96697C49.5888 4.71485 49.3573 4.51477 49.0844 4.39062C46.1094 3.03749 41.3344 1.41562 36.6031 0.937494C32.5406 0.528119 28.0781 0.924994 25 3.57187Z" fill="#365AB7"/>
</svg>
